<?xml version="1.0" standalone="no"?>
<!DOCTYPE svg PUBLIC "-//W3C//DTD SVG 20010904//EN"
 "http://www.w3.org/TR/2001/REC-SVG-20010904/DTD/svg10.dtd">
<svg version="1.0" xmlns="http://www.w3.org/2000/svg"
 width="225.000000pt" height="225.000000pt" viewBox="0 0 225.000000 225.000000"
 preserveAspectRatio="xMidYMid meet">

<g transform="translate(0.000000,225.000000) scale(0.100000,-0.100000)"
fill="#000000" stroke="none">
<path d="M1033 1975 c-47 -29 -83 -91 -83 -146 0 -48 38 -119 77 -145 91 -60
210 -27 254 70 72 158 -99 310 -248 221z m148 -55 c10 -6 26 -24 34 -40 23
-45 19 -85 -14 -122 -25 -28 -36 -33 -76 -33 -40 0 -51 5 -76 33 -18 21 -29
43 -29 63 0 36 23 84 47 98 23 14 89 14 114 1z"/>
<path d="M1066 1290 c-43 -13 -95 -69 -107 -114 -18 -67 -4 -122 45 -171 47
-47 92 -61 159 -50 58 10 123 78 132 137 21 137 -96 237 -229 198z m130 -94
c26 -26 34 -42 34 -71 0 -52 -53 -105 -105 -105 -52 0 -105 53 -105 105 0 29
8 45 34 71 26 26 42 34 71 34 29 0 45 -8 71 -34z"/>
<path d="M1067 585 c-52 -18 -83 -49 -103 -101 -44 -115 39 -234 161 -234 129
0 210 128 156 245 -22 49 -48 73 -98 91 -48 17 -68 17 -116 -1z m136 -95 c31
-35 35 -75 12 -120 -19 -37 -43 -50 -90 -50 -47 0 -71 13 -90 50 -21 41 -19
83 6 114 44 55 115 58 162 6z"/>
</g>
</svg>
