<?xml version="1.0" standalone="no"?>
<!DOCTYPE svg PUBLIC "-//W3C//DTD SVG 20010904//EN"
 "http://www.w3.org/TR/2001/REC-SVG-20010904/DTD/svg10.dtd">
<svg version="1.0" xmlns="http://www.w3.org/2000/svg"
 width="225.000000pt" height="225.000000pt" viewBox="0 0 225.000000 225.000000"
 preserveAspectRatio="xMidYMid meet">

<g transform="translate(0.000000,225.000000) scale(0.100000,-0.100000)"
fill="#000000" stroke="none">
<path d="M1030 2165 c-405 -64 -746 -370 -851 -765 -12 -47 -24 -87 -25 -89
-2 -2 -15 11 -29 28 -34 40 -75 42 -104 5 -12 -15 -21 -35 -21 -45 0 -24 154
-255 179 -268 11 -6 27 -11 37 -11 21 0 222 196 235 228 9 24 -3 60 -25 74
-24 17 -73 8 -96 -17 -13 -14 -27 -25 -31 -25 -12 0 32 153 66 226 117 254
346 442 622 511 48 12 110 17 208 17 155 0 226 -13 351 -65 474 -198 695 -759
481 -1222 -119 -257 -347 -445 -624 -514 -48 -12 -111 -17 -213 -17 -167 -1
-235 13 -368 75 -115 53 -192 110 -294 219 -79 84 -90 92 -115 86 -32 -8 -63
-40 -63 -65 0 -25 33 -72 100 -144 391 -418 1076 -420 1491 -5 126 126 228
305 275 483 24 88 27 119 27 260 0 141 -3 172 -27 260 -140 529 -650 864
-1186 780z"/>
<path d="M1110 1768 c-19 -21 -20 -33 -20 -362 1 -252 4 -345 13 -357 16 -20
414 -319 448 -336 56 -28 115 26 90 84 -8 18 -84 82 -212 178 l-199 150 0 310
c0 299 -1 312 -20 333 -12 13 -33 22 -50 22 -17 0 -38 -9 -50 -22z"/>
</g>
</svg>
