<?xml version="1.0" standalone="no"?>
<!DOCTYPE svg PUBLIC "-//W3C//DTD SVG 20010904//EN"
 "http://www.w3.org/TR/2001/REC-SVG-20010904/DTD/svg10.dtd">
<svg version="1.0" xmlns="http://www.w3.org/2000/svg"
 width="178.000000pt" height="167.000000pt" viewBox="0 0 178.000000 167.000000"
 preserveAspectRatio="xMidYMid meet">

<g transform="translate(0.000000,167.000000) scale(0.100000,-0.100000)"
fill="#000000" stroke="none">
<path d="M763 1623 c-10 -15 -34 -65 -53 -112 -46 -113 -60 -118 -192 -67 -51
20 -103 36 -116 36 -15 0 -51 -25 -98 -67 -74 -66 -75 -69 -71 -108 2 -22 21
-77 41 -121 36 -79 37 -83 22 -112 -13 -25 -32 -36 -101 -63 -136 -51 -135
-50 -135 -180 l0 -109 32 -20 c18 -10 68 -32 111 -47 66 -23 82 -33 94 -59 14
-29 14 -35 -7 -80 -29 -65 -60 -153 -60 -172 0 -9 35 -48 78 -89 90 -86 88
-85 225 -27 65 28 88 34 111 27 33 -9 30 -6 86 -128 22 -49 46 -93 53 -97 7
-4 60 -8 118 -8 86 0 109 3 120 16 8 9 32 59 54 112 52 126 63 130 197 78 51
-20 104 -36 118 -36 17 0 49 23 99 70 71 67 74 71 69 107 -3 21 -22 75 -43
119 -35 77 -36 83 -22 110 12 23 34 37 99 63 45 19 95 43 111 53 27 19 27 21
27 127 0 83 -3 111 -15 121 -8 6 -58 29 -111 50 -136 53 -139 60 -85 195 23
57 41 112 41 123 0 12 -31 48 -77 92 -90 83 -88 83 -226 24 -65 -28 -88 -34
-111 -27 -33 9 -31 6 -90 136 l-45 97 -115 0 c-114 0 -116 0 -133 -27z m238
-164 l44 -101 63 -26 63 -25 97 42 c53 22 102 41 107 41 6 0 29 -18 50 -40
l39 -40 -41 -101 -42 -101 26 -65 c16 -40 34 -68 47 -74 12 -4 58 -22 104 -40
l83 -31 -3 -61 -3 -62 -100 -41 -100 -41 -27 -65 -28 -66 46 -98 45 -97 -33
-34 c-52 -55 -55 -55 -158 -12 -52 21 -100 39 -106 39 -6 0 -37 -11 -70 -24
l-59 -24 -41 -98 -41 -99 -65 -3 -64 -3 -43 100 -43 99 -64 28 -64 27 -98 -41
c-53 -23 -102 -42 -107 -42 -6 0 -29 18 -50 40 l-39 40 42 101 41 102 -27 65
-27 65 -103 39 -103 40 3 61 3 61 98 41 c105 43 105 43 135 121 l20 50 -44 99
-43 100 43 43 42 43 107 -42 107 -42 64 27 65 28 32 81 c47 124 41 117 113
117 l62 0 45 -101z"/>
<path d="M827 1120 c-90 -23 -169 -89 -208 -174 -28 -61 -26 -167 5 -231 105
-221 422 -227 539 -10 18 32 22 57 22 130 0 80 -3 95 -27 135 -54 93 -136 145
-239 154 -30 3 -71 1 -92 -4z m163 -105 c35 -19 87 -75 99 -108 6 -16 11 -48
11 -72 0 -57 -14 -93 -53 -133 -47 -49 -84 -65 -152 -66 -118 -1 -205 83 -205
199 0 58 18 102 61 143 59 58 167 74 239 37z"/>
</g>
</svg>
